<svg width="17" height="17" viewBox="0 0 17 17" fill="none" xmlns="http://www.w3.org/2000/svg">
<path fill-rule="evenodd" clip-rule="evenodd" d="M12.0637 15.2512C12.0143 15.3006 11.9557 15.3399 11.8911 15.3667C11.8266 15.3934 11.7574 15.4072 11.6875 15.4072C11.6176 15.4072 11.5485 15.3934 11.4839 15.3667C11.4194 15.3399 11.3608 15.3006 11.3114 15.2512L4.9364 8.87615C4.88693 8.8268 4.84768 8.76818 4.8209 8.70364C4.79411 8.6391 4.78033 8.5699 4.78033 8.50003C4.78033 8.43015 4.79411 8.36096 4.8209 8.29642C4.84768 8.23187 4.88693 8.17325 4.9364 8.1239L11.3114 1.7489C11.4112 1.64915 11.5465 1.59311 11.6875 1.59311C11.8286 1.59311 11.9639 1.64915 12.0637 1.7489C12.1634 1.84866 12.2194 1.98395 12.2194 2.12503C12.2194 2.2661 12.1634 2.4014 12.0637 2.50115L6.06372 8.50003L12.0637 14.4989C12.1131 14.5483 12.1524 14.6069 12.1792 14.6714C12.2059 14.736 12.2197 14.8051 12.2197 14.875C12.2197 14.9449 12.2059 15.0141 12.1792 15.0786C12.1524 15.1432 12.1131 15.2018 12.0637 15.2512Z" fill="white"/>
</svg>
